/* XPM */
static char * icon32x32_xpm[] = {
"32 32 136 2",
"  	c None",
". 	c #797979",
"+ 	c #757575",
"@ 	c #737373",
"# 	c #747474",
"$ 	c #7B7B7B",
"% 	c #6F6F6F",
"& 	c #6D6D6D",
"* 	c #6B6B6B",
"= 	c #767676",
"- 	c #787878",
"; 	c #707070",
"> 	c #6E6E6E",
", 	c #6C6C6C",
"' 	c #777777",
") 	c #717171",
"! 	c #7A7A7A",
"~ 	c #878787",
"{ 	c #898989",
"] 	c #727272",
"^ 	c #989898",
"/ 	c #D5D5D5",
"( 	c #E3E3E3",
"_ 	c #E4E4E4",
": 	c #CCCCCC",
"< 	c #A3A3A3",
"[ 	c #888888",
"} 	c #B2B2B2",
"| 	c #EDEDED",
"1 	c #F1F1F1",
"2 	c #DEDEDE",
"3 	c #CDCDCD",
"4 	c #DBDBDB",
"5 	c #E1E1E1",
"6 	c #8C8C8C",
"7 	c #9B9B9B",
"8 	c #EAEAEA",
"9 	c #EFEFEF",
"0 	c #DDDDDD",
"a 	c #C3C3C3",
"b 	c #BBBBBB",
"c 	c #E6E6E6",
"d 	c #B0B0B0",
"e 	c #696969",
"f 	c #6A6A6A",
"g 	c #686868",
"h 	c #F2F2F2",
"i 	c #E0E0E0",
"j 	c #EBEBEB",
"k 	c #E2E2E2",
"l 	c #CECECE",
"m 	c #B1B1B1",
"n 	c #C5C5C5",
"o 	c #B4B4B4",
"p 	c #666666",
"q 	c #868686",
"r 	c #F6F6F6",
"s 	c #D8D8D8",
"t 	c #D4D4D4",
"u 	c #B6B6B6",
"v 	c #A6A6A6",
"w 	c #C9C9C9",
"x 	c #818181",
"y 	c #676767",
"z 	c #F7F7F7",
"A 	c #A4A4A4",
"B 	c #A0A0A0",
"C 	c #AFAFAF",
"D 	c #8B8B8B",
"E 	c #848484",
"F 	c #979797",
"G 	c #D9D9D9",
"H 	c #D6D6D6",
"I 	c #D1D1D1",
"J 	c #C4C4C4",
"K 	c #C6C6C6",
"L 	c #B7B7B7",
"M 	c #ADADAD",
"N 	c #8A8A8A",
"O 	c #D2D2D2",
"P 	c #C2C2C2",
"Q 	c #999999",
"R 	c #9A9A9A",
"S 	c #AEAEAE",
"T 	c #646464",
"U 	c #B5B5B5",
"V 	c #8D8D8D",
"W 	c #626262",
"X 	c #808080",
"Y 	c #9F9F9F",
"Z 	c #858585",
"` 	c #636363",
" .	c #A2A2A2",
"..	c #A7A7A7",
"+.	c #606060",
"@.	c #5F5F5F",
"#.	c #BFBFBF",
"$.	c #C0C0C0",
"%.	c #B3B3B3",
"&.	c #616161",
"*.	c #E9E9E9",
"=.	c #E5E5E5",
"-.	c #DADADA",
";.	c #DCDCDC",
">.	c #D7D7D7",
",.	c #656565",
"'.	c #E8E8E8",
").	c #555555",
"!.	c #575757",
"~.	c #5E5E5E",
"{.	c #9D9D9D",
"].	c #C7C7C7",
"^.	c #7F7F7F",
"/.	c #515151",
"(.	c #505050",
"_.	c #535353",
":.	c #939393",
"<.	c #959595",
"[.	c #7D7D7D",
"}.	c #919191",
"|.	c #595959",
"1.	c #525252",
"2.	c #545454",
"3.	c #565656",
"4.	c #F8F8F8",
"5.	c #F4F4F4",
"6.	c #CBCBCB",
"7.	c #5A5A5A",
"8.	c #FFFFFF",
"9.	c #FDFDFD",
"0.	c #5B5B5B",
"a.	c #5D5D5D",
"b.	c #CACACA",
"c.	c #5C5C5C",
"d.	c #A5A5A5",
"e.	c #585858",
"                            . + @ # @                           ",
"                      $ # % & & & * * & =                       ",
"                    - % ; ; > % % & , , > #                     ",
"                  # % > ; ; % ; ; > , & > > #                   ",
"                ' % @ ) ) ) ! ~ { . , > ) ) ; .                 ",
"                > ; ] ] # ^ / ( _ : < [ @ ) ] %                 ",
"              # & ; ; + } | 1 | 2 3 4 5 6 ) ] % ]               ",
"              & , , * 7 1 8 9 1 0 a b c d > , , e               ",
"            ] e f g & b h i j c k l m n o > p g p ,             ",
"            ] , & > q i r k s t 5 u v v w x y g g e             ",
"            ) * , + w z | 3 A B C D E F G o , e * f             ",
"            & g e $ s ( H I J J K L M N J < e y g e #           ",
"          @ f y g ' L : O P d m Q Q R N S F y T T p ]           ",
"          ] p T p e q U / L V ' W @ X Y v Z ` W W T )           ",
"          ) ` ` ` T p C 0 P ^ x - ] ;  ...= +.+.W W ,           ",
"          * +.@.+.+.T } k i I #.u $.C %...) &.&.&.&.p           ",
"          f +.@.+.&.T m *.| 8 =.-._ ;.>.M * T ,.T T e           ",
"          > &.@.+.T y N 2 '.'.c 0 8 k / B ).!.~.,.y ]           ",
"          % @.@.e % e p {.H 0 3 ].4 3 ..^./.(._.!.+.@           ",
"          > ~.T e * W e , :.3 <.[.m }.` |./.1.2.).3.y           ",
"          & @.f ` g e > T ; 4.5.5 6.~.!.|._.).7.!.!.g           ",
"            W % T , ] ] y p 5.8.9.%.+.~.+.3.0.@.0.7.            ",
"            * , &.@ + ) e &.=.8.9 [ g p ,.@.W &.0.a.            ",
"            ) f a.# ' @ * ~.b.8.I ] * e e ,.T @.|.`             ",
"            + g 0.; + ] f 7.v 1 ^ * * , y W W c.a.              ",
"              e c., + ] g 2.+ d.' , , f ` ` &.7.`               ",
"                0.g f ) y /.7.g , e T W W @.c.c.                ",
"                @.p ` > f _.|.g e ~.c.` +.c.|.`                 ",
"                  , T g f _.a.& ~.|.@.` a.7.`                   ",
"                    , p T _.e.7.c.+.7.c.0.T                     ",
"                      ; p 3.3.!.g p 7.+.e                       ",
"                          e g &.,.f                             "};
