<?xml version="1.0" encoding="UTF-8" standalone="no"?>
<!DOCTYPE svg PUBLIC "-//W3C//DTD SVG 1.0//EN"
"http://www.w3.org/TR/2001/REC-SVG-20010904/DTD/svg10.dtd">
<!-- Created with Inkscape (http://www.inkscape.org/) -->
<svg
   xmlns="http://www.w3.org/2000/svg"
   xmlns:xlink="http://www.w3.org/1999/xlink"
   version="1.0"
   x="0.0000000"
   y="0.0000000"
   width="744.09448"
   height="1052.3622"
   id="svg827">
  <defs
     id="defs829">
    <linearGradient
       id="linearGradient888">
      <stop
         style="stop-color:#ffe06c;stop-opacity:1.0000000;"
         offset="0.0000000"
         id="stop889" />
      <stop
         style="stop-color:#dea400;stop-opacity:1.0000000;"
         offset="1.0000000"
         id="stop890" />
    </linearGradient>
    <linearGradient
       id="linearGradient882">
      <stop
         style="stop-color:#f54182;stop-opacity:1.0000000;"
         offset="0.0000000"
         id="stop883" />
      <stop
         style="stop-color:#350714;stop-opacity:1.0000000;"
         offset="1.0000000"
         id="stop884" />
    </linearGradient>
    <linearGradient
       id="linearGradient869">
      <stop
         style="stop-color:#ffcb7e;stop-opacity:1.0000000;"
         offset="0.0000000"
         id="stop870" />
      <stop
         style="stop-color:#6a5318;stop-opacity:1.0000000;"
         offset="1.0000000"
         id="stop871" />
    </linearGradient>
    <linearGradient
       id="linearGradient842">
      <stop
         style="stop-color:#e9ba73;stop-opacity:1.0000000;"
         offset="0.0000000"
         id="stop843" />
      <stop
         style="stop-color:#493910;stop-opacity:1.0000000;"
         offset="1.0000000"
         id="stop844" />
    </linearGradient>
    <linearGradient
       id="linearGradient837">
      <stop
         style="stop-color:#7d5d21;stop-opacity:1.0000000;"
         offset="0.0000000"
         id="stop838" />
      <stop
         style="stop-color:#ffcb32;stop-opacity:1.0000000;"
         offset="1.0000000"
         id="stop839" />
    </linearGradient>
    <radialGradient
       cx="0.11874995"
       cy="0.38281271"
       r="1.1752337"
       fx="0.16938283"
       fy="0.40625024"
       id="radialGradient840"
       xlink:href="#linearGradient882" />
    <radialGradient
       cx="0.34939760"
       cy="0.44531250"
       r="0.56970376"
       fx="0.34939760"
       fy="0.44531250"
       id="radialGradient841"
       xlink:href="#linearGradient888"
       spreadMethod="pad" />
    <linearGradient
       x1="0.67857140"
       y1="0.22656250"
       x2="0.54464287"
       y2="0.84375000"
       id="linearGradient845"
       xlink:href="#linearGradient842" />
    <linearGradient
       x1="0.45061728"
       y1="0.80468750"
       x2="0.59259260"
       y2="0.31250000"
       id="linearGradient864"
       xlink:href="#linearGradient837" />
    <linearGradient
       x1="4.6143644e-16"
       y1="0.50000000"
       x2="0.24107143"
       y2="0.015625000"
       id="linearGradient874"
       xlink:href="#linearGradient837" />
    <linearGradient
       x1="0.27848101"
       y1="0.69531250"
       x2="0.42405063"
       y2="0.96093750"
       id="linearGradient880"
       xlink:href="#linearGradient882" />
    <linearGradient
       x1="0.52531648"
       y1="0.57812500"
       x2="0.50632912"
       y2="0.78906250"
       id="linearGradient886"
       xlink:href="#linearGradient882" />
  </defs>
  <path
     d="M 437.19986,216.64371 L 437.19986,216.64371 C 3.7787101e+16,1052.3719 439.74468,175.92661 444.83432,167.78319 C 449.92395,159.63977 457.04945,145.38878 474.86318,141.82604 C 492.67691,138.26329 496.23965,149.96946 504.38307,162.18459 C 512.52649,174.39972 505.40100,189.66863 505.40100,189.66863 C 505.40100,189.66863 506.92789,193.23138 507.94582,190.68656 C 508.96375,188.14174 513.54442,157.60391 531.35815,150.47842 C 549.17188,143.35293 550.69877,141.82604 566.47665,146.91568 C 582.25453,152.00531 589.38002,184.07003 589.88898,190.17759 C 590.39795,196.28516 587.85313,244.63672 557.82427,267.03112 C 527.79541,289.42552 516.59820,264.99527 519.65199,266.01319 C 522.70577,267.03112 495.73069,254.30703 497.25758,252.27117 C 498.78447,250.23532 491.65898,240.05604 492.16794,242.09190 C 492.67691,244.12775 483.51556,240.56501 485.55142,245.65464 C 487.58727,250.74428 462.64805,241.58293 459.59426,242.60086 C 456.54048,243.61879 440.76261,235.98433 440.25364,232.42159 C 439.74468,228.85884 437.19986,216.64371 437.19986,216.64371 z "
     style="fill:#d1a3c7;fill-rule:evenodd;stroke:#000000;stroke-width:1.0000000pt;"
     id="path849" />
  <g
     id="g875">
    <path
       d="M 732.25626,582.45117 C 762.44087,590.27680 767.65796,594.37595 768.77591,596.23920 C 772.50241,599.59304 771.75711,605.92808 771.01181,608.90928 C 770.26651,611.89048 769.89386,618.97082 753.12464,615.98962 C 736.35541,613.00842 712.13319,605.55543 712.13319,605.55543 L 730.39302,583.56911"
       transform="translate(-40.24615,-59.62392)"
       style="fill:url(#linearGradient874);fill-opacity:0.75000000;fill-rule:evenodd;stroke-width:1.0000000pt;"
       id="path875" />
    <path
       d="M 303.34240,698.12341 C 303.34240,698.12341 281.96592,670.63936 272.80457,645.19118 C 268.73287,626.86848 260.58945,608.54579 268.73287,554.59562 C 272.73199,522.60264 290.98278,496.00063 304.32326,478.14448 L 317.59338,458.91045 C 317.59338,458.91045 311.48582,446.69531 296.21691,434.48018 C 273.82250,419.21127 201.54965,362.20733 201.54965,362.20733 C 201.54965,362.20733 153.70705,332.68743 152.68913,328.61572 L 116.04374,300.11375 C 116.04374,300.11375 88.559693,304.18546 80.416273,300.11375 C 72.272853,296.04204 68.201143,280.77313 68.201143,269.57593 C 68.201144,260.41458 81.434201,234.96639 93.649331,217.66162 C 97.721041,215.62577 102.81068,194.24929 135.38436,176.94452 C 149.63534,168.80110 177.11939,172.87281 197.47794,179.99831 C 217.83649,187.12380 222.92612,203.41064 222.92612,203.41064 C 222.92612,203.41064 216.81856,171.85488 231.06954,172.87281 C 245.32053,173.89074 254.48188,184.07001 255.49981,197.30307 C 259.57152,209.51820 261.60737,229.87675 261.60737,229.87675 C 261.60737,229.87675 295.19898,279.75520 302.32447,282.80898 C 309.44996,285.86277 349.14914,320.47230 349.14914,320.47230 C 349.14914,320.47230 351.18499,286.88069 358.31049,277.71935 C 363.40013,263.46836 372.56147,247.18152 389.86623,241.07395 C 401.06344,234.96639 411.24271,231.91261 423.45784,228.85883 C 425.49370,223.76919 429.56540,111.79717 515.07132,81.259338 C 600.57723,50.721512 633.15091,128.08400 633.15091,128.08400 C 645.36604,145.38877 678.95765,249.21737 669.79630,276.70142 C 668.77837,319.45437 668.77837,337.77707 666.74252,355.08184 C 664.70666,372.38661 668.77838,378.49417 668.77838,378.49417 C 668.77838,378.49417 778.71454,481.30484 769.55320,518.96817 C 773.62490,561.72112 726.80024,605.49201 718.65682,612.61750 C 717.63889,620.76092 710.51340,697.10548 710.51340,697.10548 L 303.34240,698.12341 z "
       transform="translate(-40.24615,-59.62392)"
       style="fill-rule:evenodd;stroke-width:1.0000000pt;"
       id="path846" />
    <path
       d="M 437.19986,199.33894 C 437.19986,199.33894 438.72675,176.43557 446.36121,165.74733 C 453.99566,155.05910 460.33065,144.08931 473.33629,142.84397 C 485.55142,140.80811 496.83978,145.75257 501.42045,153.38703 C 506.00113,161.02149 504.62853,157.83133 507.40076,172.25561 C 507.17336,179.82502 507.28160,186.26113 507.47294,188.06957 C 510.45456,190.87412 516.43562,154.66793 527.75911,148.78779 C 535.39357,143.69815 546.62706,139.28122 558.33323,143.35293 C 570.03940,147.42464 583.78142,155.56806 587.85313,181.52521 C 591.92484,207.48236 581.07286,235.67541 575.47425,242.80091 C 569.87565,249.92640 554.26153,273.13869 548.15396,274.66558 C 542.04640,276.19247 529.83126,273.64765 520.66991,267.54008 C 514.05339,262.45045 505.48119,257.40562 500.30134,254.29770 C 492.26450,250.94433 496.39528,244.58008 491.39112,242.31758 C 486.55413,242.13723 486.41237,247.24354 480.02871,246.47107 C 476.69408,246.42518 461.63012,243.61879 459.08530,242.60086 C 456.54048,241.58293 436.18193,239.54708 436.69090,219.69749 C 437.19986,199.84791 437.19986,199.33894 437.19986,199.33894 z "
       transform="translate(-40.24615,-59.62392)"
       style="fill:#ffffff;fill-rule:evenodd;stroke-width:1.0000000pt;"
       id="path853" />
    <path
       d="M 482.95376 202.72133 A 12.856408 15.278629 0 1 0 457.24094,202.72133 A 12.856408 15.278629 0 1 0 482.95376 202.72133 z"
       transform="matrix(-0.993474,-0.209364,0.204835,-1.015442,851.0699,446.8114)"
       style="fill-rule:evenodd;stroke-width:1.0000000pt;"
       id="path876" />
    <path
       d="M 439.23572,242.60086 C 450.43292,242.09190 499.29344,253.28910 521.68784,269.06698 C 544.08225,284.84485 554.77048,311.81993 552.22567,328.61573 C 549.68085,345.41154 535.42986,384.60174 517.61613,389.69138 C 499.80240,394.78102 466.71976,394.78102 448.90603,391.21827 C 415.82338,382.05693 407.67997,381.54796 375.10628,357.62667 C 345.07742,339.81294 347.62223,239.54707 439.23572,242.60086 z "
       transform="translate(-40.24615,-59.62392)"
       style="fill:#ffbc00;fill-rule:evenodd;stroke-width:1.0000000pt;"
       id="path844" />
    <path
       d="M 420.40407 312.83786 A 13.742022 24.939224 0 1 0 392.92003,312.83786 A 13.742022 24.939224 0 1 0 420.40407 312.83786 z"
       transform="matrix(0.968234,0.250040,-0.250040,0.968234,46.31459,-152.8958)"
       style="fill-rule:evenodd;stroke-width:1.0000000pt;"
       id="path847" />
    <path
       d="M 367.21580,699.53472 C 364.44902,698.21721 354.01634,687.43198 351.14656,680.95393 C 348.27676,674.47588 307.38233,615.45364 321.73126,552.11270 C 336.08017,488.77175 379.84440,513.96417 382.71419,485.89262 C 385.58397,457.82107 392.04099,436.94735 430.06564,432.62865 C 468.09030,428.30994 498.22304,444.86496 508.98474,472.93652 C 519.74643,501.00807 538.40004,554.27205 538.40004,578.74468 C 538.40004,603.21732 536.96515,662.23956 536.96515,662.23956 C 536.96515,662.23956 534.44008,688.21940 521.65475,698.69452 L 367.21580,699.53472 z "
       transform="translate(-40.24615,-59.62392)"
       style="fill:#ffffff;fill-rule:evenodd;stroke-width:0.99837523pt;"
       id="path850" />
    <path
       d="M 612.53569,661.13423 C 633.06266,666.27536 668.54987,645.91613 677.17475,634.16802"
       transform="translate(-40.24615,-59.62392)"
       style="fill:none;fill-rule:evenodd;stroke:#ffffff;stroke-width:11.000000;stroke-linecap:round;stroke-linejoin:round;"
       id="path851" />
    <path
       d="M 558.60159,528.04436 L 617.10757,545.93154 L 614.87166,564.19136 L 598.84774,582.45119 L 547.79475,571.27170 L 551.14861,548.16743 L 558.60159,528.04436 z "
       transform="translate(-40.24615,-59.62392)"
       style="fill:url(#linearGradient864);fill-rule:evenodd;stroke-width:1.0000000pt;"
       id="path861" />
    <path
       d="M 579.70657,471.07459 C 579.70657,493.20884 588.13867,502.69495 589.71969,504.80297 C 594.98975,515.34308 619.75903,530.62627 619.75902,553.81453 C 616.06999,575.94878 602.36783,581.21884 596.04376,586.48890 C 589.71969,591.75896 583.92262,608.09615 586.03065,607.56914"
       transform="translate(-40.24615,-59.62392)"
       style="fill:none;fill-opacity:0.75000000;fill-rule:evenodd;stroke:#ffffff;stroke-width:9.5000000;stroke-linecap:round;stroke-linejoin:round;"
       id="path854" />
    <path
       d="M 510.90246,566.42724 L 510.90246,566.42724 C 508.29392,541.45972 519.47340,514.25631 519.47340,514.25631 L 559.34690,528.04434 C 559.34690,528.04434 552.63921,549.28536 551.89391,553.38450 C 551.14861,557.48365 547.79476,570.89903 547.79476,570.89903 L 510.90246,566.42724 z "
       transform="translate(-40.24615,-59.62392)"
       style="fill:url(#linearGradient845);fill-rule:evenodd;stroke-width:1.0000000pt;"
       id="path862" />
    <path
       d="M 552.63923 224.14867 A 13.788032 22.545294 0 1 0 525.06316,224.14867 A 13.788032 22.545294 0 1 0 552.63923 224.14867 z"
       transform="matrix(0.974024,0.257678,-0.216519,0.921425,17.43917,-181.2350)"
       style="fill-rule:evenodd;stroke-width:1.0000000pt;"
       id="path877" />
    <path
       d="M 419.02175,585.03169 C 430.57389,583.91374 449.02552,570.43442 457.22381,568.94382 C 465.42210,567.45323 471.75714,573.78827 482.93662,572.29767 C 501.22293,572.88861 511.63063,566.33528 511.63063,566.33528 C 510.14003,567.08058 512.00328,546.58485 514.23918,539.87716 C 514.23918,529.44298 520.57422,514.53700 520.57422,514.53700 C 520.57422,514.53700 505.29559,498.51306 486.66311,498.88572 C 485.17252,498.14043 460.57765,499.75889 448.65287,508.57461 C 424.05800,527.95238 417.50467,545.10523 413.99646,559.62758 C 412.50586,563.35408 412.87852,577.88741 413.62381,580.86861 C 414.36911,583.84980 419.02175,585.03169 419.02175,585.03169 z "
       transform="translate(-40.24615,-59.62392)"
       style="fill:url(#radialGradient840);fill-rule:evenodd;stroke-width:1.0000000pt;"
       id="path885" />
  </g>
</svg>
