<?xml version="1.0" encoding="UTF-8" standalone="no"?>
<!-- Created with Inkscape (http://www.inkscape.org/) -->
<svg xmlns:dc="http://purl.org/dc/elements/1.1/" xmlns:cc="http://creativecommons.org/ns#" xmlns:rdf="http://www.w3.org/1999/02/22-rdf-syntax-ns#" xmlns:svg="http://www.w3.org/2000/svg" xmlns="http://www.w3.org/2000/svg" xmlns:sodipodi="http://sodipodi.sourceforge.net/DTD/sodipodi-0.dtd" xmlns:inkscape="http://www.inkscape.org/namespaces/inkscape" height="473.8699" id="svg2" inkscape:version="0.45+devel" sodipodi:docbase="C:\DOCUME~1\User\MYDOCU~1\MYPICT~1\CLIPAR~1" sodipodi:docname="elephant_outline_matthe_r.svg" sodipodi:version="0.32" width="640.54669" inkscape:output_extension="org.inkscape.output.svg.inkscape" version="1.0">
  <metadata id="metadata3">
    <rdf:RDF>
      <cc:Work rdf:about="">
        <dc:title>Elephant Outline</dc:title>
        <dc:description>Clip art for coloring book creation</dc:description>
        <dc:subject>
          <rdf:Bag>
            <rdf:li>mammal</rdf:li>
            <rdf:li>asia</rdf:li>
            <rdf:li>animal</rdf:li>
            <rdf:li>africa</rdf:li>
            <rdf:li>coloring</rdf:li>
          </rdf:Bag>
        </dc:subject>
        <dc:publisher>
          <cc:Agent rdf:about="http://www.openclipart.org/">
            <dc:title>Open Clip Art Library</dc:title>
          </cc:Agent>
        </dc:publisher>
        <dc:creator>
          <cc:Agent>
            <dc:title>Matthew Loewen</dc:title>
          </cc:Agent>
        </dc:creator>
        <dc:rights>
          <cc:Agent>
            <dc:title>Matthew Loewen</dc:title>
          </cc:Agent>
        </dc:rights>
        <dc:date/>
        <dc:format>image/svg+xml</dc:format>
        <dc:type rdf:resource="http://purl.org/dc/dcmitype/StillImage"/>
        <cc:license rdf:resource="http://web.resource.org/cc/PublicDomain"/>
        <dc:language>en</dc:language>
      </cc:Work>
      <cc:License rdf:about="http://web.resource.org/cc/PublicDomain">
        <cc:permits rdf:resource="http://web.resource.org/cc/Reproduction"/>
        <cc:permits rdf:resource="http://web.resource.org/cc/Distribution"/>
        <cc:permits rdf:resource="http://web.resource.org/cc/DerivativeWorks"/>
      </cc:License>
    </rdf:RDF>
  </metadata>
  <defs id="defs3"/>
  <sodipodi:namedview bordercolor="#666666" borderopacity="1.0" id="base" inkscape:current-layer="svg2" inkscape:cx="372.04725" inkscape:cy="283.55615" inkscape:document-units="px" inkscape:guide-bbox="true" inkscape:pageopacity="0.0" inkscape:pageshadow="2" inkscape:window-height="713" inkscape:window-width="1024" inkscape:window-x="-4" inkscape:window-y="-4" inkscape:zoom="0.51123084" pagecolor="#ffffff" showgrid="true" showguides="true">
    <sodipodi:guide id="guide9809" orientation="vertical" position="-528.13715"/>
  </sodipodi:namedview>
  <path d="M 16.513393,294.39585 C 25.894783,244.37283 20.769303,192.91877 28.581503,142.84951 C 39.102633,92.405981 74.15677,45.996181 123.85167,30.106091 C 183.59138,1.8767802 252.34457,-7.9985598 316.7549,8.3882302 C 361.06963,16.5658 404.68437,29.162531 446.03805,47.295591 C 473.8181,24.568611 513.46341,3.2207602 548.82389,21.409611 C 572.12469,54.901461 615.06762,72.999731 627.66351,113.86631 C 642.15422,146.78604 645.26944,185.2962 630.00741,218.57101 C 615.50983,261.48985 598.68144,305.49254 601.40745,351.66293 C 612.94568,372.09065 660.85515,404.18795 621.91341,422.44837 C 580.08366,431.93902 565.91133,381.43557 560.78625,349.56287 C 550.18632,304.94934 545.61029,258.89093 531.21531,215.21466 C 510.20779,232.44292 524.0786,270.28624 501.23282,289.29956 C 488.00247,312.05765 457.63248,302.64512 466.42858,275.09484 C 464.7288,234.75604 451.09341,196.293 433.60268,160.45125 C 421.8862,122.52945 441.99426,76.396291 479.25971,62.040241 C 500.4605,64.398021 516.41074,80.857711 535.56202,88.639221 M 15.561014,293.43436 C 35.788623,260.99191 61.07432,227.24951 58.13353,186.70028 C 59.47305,173.46296 58.96946,121.4423 55.08265,158.62319 C 50.15279,190.95763 47.50068,229.00396 71.77205,254.62281 C 87.90822,275.32749 104.76436,313.03714 77.53678,331.89714 C 54.14833,349.82109 20.004523,351.79744 2.2069347,377.03124 C -8.2889173,410.58153 30.838313,441.37512 57.94241,454.46631 C 89.45162,452.06241 90.52971,399.25672 125.65138,394.80771 C 160.28706,373.54422 198.36563,357.71195 229.9878,331.66953 C 244.66002,302.19419 216.97652,276.60793 200.32071,255.42112 C 192.00533,243.52282 183.04535,232.12693 174.60115,220.31029 M 371.04038,198.7236 C 364.68897,233.95052 336.17066,257.95242 316.98361,286.15553 C 312.18038,319.35746 319.48309,353.47092 313.81856,386.37591 C 298.8029,408.66145 266.36879,440.99716 303.95596,461.38451 C 327.76402,486.55981 364.76745,469.46577 362.29154,435.43809 C 368.57665,400.01587 391.58031,372.38061 411.10229,343.66034 C 425.37259,321.9681 435.98761,298.27161 445.13776,274.0086 M 470.79998,302.08765 C 439.6966,304.49978 397.14928,335.86456 432.53684,364.81858 C 461.19,388.83656 450.35733,442.34675 483.4201,457.5528 C 505.94156,461.49632 564.10834,452.95883 533.99398,422.08341 C 508.88352,394.84119 508.70243,359.31329 507.68046,324.94452 C 500.37063,307.74058 504.91016,252.15929 530.79166,281.009 C 537.1164,287.66212 542.75607,295.34456 550.87528,299.93191 M 198.4185,353.04609 C 183.63574,388.8957 222.47856,425.57619 202.41308,460.29742 C 179.31736,478.06917 135.2852,476.08126 123.33702,445.81077 C 119.07374,428.51361 128.12222,411.58993 128.74748,394.36686 M 231.47097,308.6286 C 256.71273,324.10582 285.8293,339.80593 316.37861,333.32223 M 599.95282,187.54447 C 631.0494,173.5778 583.8184,211.39044 599.68818,187.75423 M 613.65743,143.44355 C 609.146,146.22859 604.63457,149.01362 600.12315,151.79867" id="path1342" style="fill: none; fill-opacity: 1; fill-rule: evenodd; stroke: rgb(0, 0, 0); stroke-width: 0.921443px; stroke-linecap: butt; stroke-linejoin: miter; stroke-opacity: 1;"/>
</svg>